<svg width="900" height="900" xmlns="http://www.w3.org/2000/svg" version="1.1" enable-background="new 0 0 400 880" xml:space="preserve">
 <g id="Layer_1">
  <title>Layer 1</title>
  <path id="svg_28" d="m101,595l696,0l90,280l-872,1l86,-281z" stroke-width="5" stroke="#000" fill="#aaff56"/>
  <line stroke-width="5" stroke-linecap="undefined" stroke-linejoin="undefined" id="svg_1" y2="874.51723" x2="15.10257" y1="598.99999" x1="100" stroke="#000" fill="none"/>
  <line stroke-linecap="undefined" stroke-linejoin="undefined" id="svg_3" y2="873.99999" x2="885" y1="598" x1="800" stroke-width="5" stroke="#000" fill="none"/>
  <line stroke-linecap="undefined" stroke-linejoin="undefined" id="svg_4" y2="598" x2="801" y1="598" x1="98" stroke-width="5" stroke="#000" fill="none"/>
  <line stroke-linecap="undefined" stroke-linejoin="undefined" id="svg_5" y2="876.99999" x2="885" y1="876.99999" x1="13.00003" stroke-width="5" stroke="#000" fill="none"/>
  <line stroke-width="5" stroke-linecap="undefined" stroke-linejoin="undefined" id="svg_7" y2="874.51724" x2="69.66666" y1="598" x1="134.71794" stroke="#000" fill="none"/>
  <line stroke-linecap="undefined" stroke-linejoin="undefined" id="svg_8" y2="877.99999" x2="835" y1="598" x1="765.48718" stroke-width="5" stroke="#000" fill="none"/>
  <line stroke-linecap="undefined" stroke-linejoin="undefined" id="svg_9" y2="613.48276" x2="802.05129" y1="613.48276" x1="96.0513" stroke-width="5" stroke="#000" fill="none"/>
  <line stroke-linecap="undefined" stroke-linejoin="undefined" id="svg_10" y2="853.68965" x2="877.64104" y1="853.68965" x1="22.35893" stroke-width="5" stroke="#000" fill="none"/>
  <line stroke-dasharray="5,5" stroke-linecap="undefined" stroke-linejoin="undefined" id="svg_11" y2="729.31034" x2="835.92308" y1="729.31034" x1="64.28205" stroke="#000" fill="none"/>
  <line stroke-linecap="undefined" stroke-linejoin="undefined" id="svg_12" y2="704.20689" x2="831.71795" y1="704.20689" x1="68.48718" stroke-width="5" stroke="#000" fill="none"/>
  <line stroke-linecap="undefined" stroke-linejoin="undefined" id="svg_13" y2="774.68965" x2="852.12826" y1="773.72413" x1="47.97437" stroke-width="5" stroke="#000" fill="none"/>
  <line stroke-linecap="undefined" stroke-linejoin="undefined" id="svg_14" y2="704.20689" x2="450.10257" y1="598" x1="450.10257" stroke-width="5" stroke="#000" fill="none"/>
  <line stroke-linecap="undefined" stroke-linejoin="undefined" id="svg_15" y2="877.99999" x2="450.10257" y1="775.65517" x1="450.10257" stroke-width="5" stroke="#000" fill="none"/>
  <line stroke-linecap="undefined" stroke-linejoin="undefined" id="svg_18" y2="630" x2="48" y1="745" x1="48" stroke-width="5" stroke="#000" fill="none"/>
  <line stroke-linecap="undefined" stroke-linejoin="undefined" id="svg_19" y2="628" x2="853" y1="743" x1="853" stroke-width="5" stroke="#000" fill="none"/>
  <rect id="svg_23" height="76" width="799.00002" y="628" x="49.99996" stroke-dasharray="5,2,2,2,2,2" stroke="#000" fill="none"/>
  <path id="svg_26" d="m93,646c50,-14 48,-13 48,-13c0,0 -48,33 -48,33c0,0 92,-34 92,-34c0,0 -99,58 -99,58c0,0 143,-59 143,-59c0,0 -137,70 -137,70c0,0 177,-71 177,-71c0,0 -134,73 -134,73c0,0 161,-74 161,-74c0,0 -124,75 -124,75c0,0 147,-74 147,-74c0,0 -103,72 -103,72c0,0 131,-70 131,-70c0,0 -100,71 -100,71c0,0 130,-75 130,-75c0,0 -103,75 -103,75c0,0 140,-73 140,-73c0,0 -104,75 -104,75c0,0 130,-77 130,-77c0,0 -98,75 -98,75c0,0 126,-73 126,-73c0,0 -83,74 -83,74c0,0 113,-74 113,-74c0,0 -78,73 -78,73c0,0 105,-74 105,-74c0,0 -65,74 -65,74c0,0 89,-70 89,-70c0,0 -63,70 -63,70c0,0 94,-73 94,-73c0,0 -59,73 -59,73c0,0 90,-73 90,-73c0,0 -60,73 -60,73c0,0 87,-70 87,-70c0,0 -47,71 -47,71c0,0 77,-75 77,-75c0,0 -46,74 -46,74c0,0 74,-73 74,-73c0,0 -47,72 -47,72c0,0 74,-72 74,-72c0,0 -46,74 -46,74c0,0 73,-75 73,-75c0,0 -46,77 -46,77c0,0 74,-76 74,-76c0,0 -40,74 -40,74c0,0 71,-74 71,-74c0,0 -43,74 -43,74c0,0 66,-70 66,-70c0,0 -36,67 -36,67c0,0 50,-47 50,-47c0,0 -19,46 -19,46c0,0 19,-19 19,-19" opacity="NaN" stroke-dasharray="5,2,2,2,2,2" stroke="#000" fill="none"/>
  <path id="svg_27" d="m49.00001,628l19.17757,71l7.45794,-70l34.09346,69l2.13084,-64l39.42056,56l-9.58878,-61l40.48598,56l-3.19626,-47l41.5514,52l-14.91589,-49l54.33645,49l-9.58878,-52l52.2056,56l-9.58878,-52l53.27103,45l0,-45l50.07476,54l-15.98131,-54l69.25233,61l-40.48598,-69l76.71028,54l-31.96262,-53l80.97196,54l-35.15888,-55l88.4299,56l-24.50467,-57l66.05607,59l-27.70093,-57l78.84112,61l-30.89719,-61l92.69158,59l-41.5514,-62l94.82243,66l-34.09346,-66l77.7757,65l-31.96262,-68l39.42056,33" opacity="NaN" stroke-dasharray="5,2,2,2,2,2" stroke="#000" fill="none"/>
 </g>

</svg>