<svg width="900" height="900" xmlns="http://www.w3.org/2000/svg" xml:space="preserve" enable-background="new 0 0 400 880" version="1.1">
 <g id="Layer_1">
  <title>Layer 1</title>
  <path id="svg_2" d="m99,304l701,0l36,580l-778,0l41,-580z" stroke-dasharray="5,2,2,2,2,2" stroke="#000" fill="#aaff56"/>
  <g id="svg_17">
   <line fill="none" stroke="#000" x1="101" y1="305" x2="61" y2="883.99999" id="svg_1" stroke-linejoin="undefined" stroke-linecap="undefined" stroke-width="5"/>
   <line fill="none" stroke="#000" stroke-width="5" x1="801" y1="305" x2="836" y2="885.00002" id="svg_3" stroke-linejoin="undefined" stroke-linecap="undefined"/>
   <line fill="none" stroke="#000" stroke-width="5" x1="101" y1="305" x2="801" y2="305" id="svg_4" stroke-linejoin="undefined" stroke-linecap="undefined"/>
   <line fill="none" stroke="#000" stroke-width="5" x1="59" y1="885" x2="839" y2="885" id="svg_5" stroke-linejoin="undefined" stroke-linecap="undefined"/>
   <line fill="none" stroke="#000" x1="151" y1="305" x2="111" y2="884" id="svg_7" stroke-linejoin="undefined" stroke-linecap="undefined" stroke-width="5"/>
   <line fill="none" stroke="#000" stroke-width="5" x1="751" y1="305" x2="791" y2="885" id="svg_8" stroke-linejoin="undefined" stroke-linecap="undefined"/>
   <line fill="none" stroke="#000" stroke-width="5" x1="99" y1="335" x2="801" y2="335" id="svg_9" stroke-linejoin="undefined" stroke-linecap="undefined"/>
   <line fill="none" stroke="#000" stroke-width="5" x1="66" y1="845" x2="832" y2="845" id="svg_10" stroke-linejoin="undefined" stroke-linecap="undefined"/>
   <line fill="none" stroke="#000" x1="84" y1="577" x2="818" y2="577" id="svg_11" stroke-linejoin="undefined" stroke-linecap="undefined" stroke-dasharray="5,5"/>
   <line fill="none" stroke="#000" stroke-width="5" x1="88" y1="525" x2="814" y2="525" id="svg_12" stroke-linejoin="undefined" stroke-linecap="undefined"/>
   <line fill="none" stroke="#000" stroke-width="5" x1="78" y1="669" x2="822" y2="671" id="svg_13" stroke-linejoin="undefined" stroke-linecap="undefined"/>
   <line fill="none" stroke="#000" stroke-width="5" x1="451" y1="305" x2="451" y2="525" id="svg_14" stroke-linejoin="undefined" stroke-linecap="undefined"/>
   <line fill="none" stroke="#000" stroke-width="5" x1="451" y1="673" x2="451" y2="885" id="svg_15" stroke-linejoin="undefined" stroke-linecap="undefined"/>
  </g>
  <line fill="none" stroke="#000" stroke-width="5" x1="70" y1="578" x2="70" y2="463" id="svg_18" stroke-linejoin="undefined" stroke-linecap="undefined"/>
  <line fill="none" stroke="#000" stroke-width="5" x1="829" y1="578" x2="829" y2="463" id="svg_19" stroke-linejoin="undefined" stroke-linecap="undefined"/>
  <rect fill="none" stroke="#000" stroke-dasharray="5,2,2,2,2,2" x="69" y="464" width="758" height="76" id="svg_23"/>
  <path fill="none" stroke="#000" stroke-dasharray="5,2,2,2,2,2" opacity="NaN" d="m74,481c50,-14 48,-13 48,-13c0,0 -48,33 -48,33c0,0 92,-34 92,-34c0,0 -99,58 -99,58c0,0 143,-59 143,-59c0,0 -137,70 -137,70c0,0 177,-71 177,-71c0,0 -134,73 -134,73c0,0 161,-74 161,-74c0,0 -124,75 -124,75c0,0 147,-74 147,-74c0,0 -103,72 -103,72c0,0 131,-70 131,-70c0,0 -100,71 -100,71c0,0 130,-75 130,-75c0,0 -103,75 -103,75c0,0 140,-73 140,-73c0,0 -104,75 -104,75c0,0 130,-77 130,-77c0,0 -98,75 -98,75c0,0 126,-73 126,-73c0,0 -83,74 -83,74c0,0 113,-74 113,-74c0,0 -78,73 -78,73c0,0 105,-74 105,-74c0,0 -65,74 -65,74c0,0 89,-70 89,-70c0,0 -63,70 -63,70c0,0 94,-73 94,-73c0,0 -59,73 -59,73c0,0 90,-73 90,-73c0,0 -60,73 -60,73c0,0 87,-70 87,-70c0,0 -47,71 -47,71c0,0 77,-75 77,-75c0,0 -46,74 -46,74c0,0 74,-73 74,-73c0,0 -47,72 -47,72c0,0 74,-72 74,-72c0,0 -46,74 -46,74c0,0 73,-75 73,-75c0,0 -46,77 -46,77c0,0 74,-76 74,-76c0,0 -40,74 -40,74c0,0 71,-74 71,-74c0,0 -43,74 -43,74c0,0 66,-70 66,-70c0,0 -36,67 -36,67c0,0 50,-47 50,-47c0,0 -19,46 -19,46c0,0 19,-19 19,-19" id="svg_26"/>
  <path fill="none" stroke="#000" stroke-dasharray="5,2,2,2,2,2" opacity="NaN" d="m76,465l18,71l7,-70l32,69l2,-64l37,56l-9,-61l38,56l-3,-47l39,52l-14,-49l51,49l-9,-52l49,56l-9,-52l50,45l0,-45l47,54l-15,-54l65,61l-38,-69l72,54l-30,-53l76,54l-33,-55l83,56l-23,-57l62,59l-26,-57l74,61l-29,-61l87,59l-39,-62l89,66l-32,-66l73,65l-30,-68l37,33" id="svg_27"/>
 </g>

</svg>